<?xml version="1.0" encoding="UTF-8" standalone="no"?>
<!-- Created with Inkscape (http://www.inkscape.org/) -->

<svg
   xmlns:dc="http://purl.org/dc/elements/1.1/"
   xmlns:cc="http://creativecommons.org/ns#"
   xmlns:rdf="http://www.w3.org/1999/02/22-rdf-syntax-ns#"
   xmlns:svg="http://www.w3.org/2000/svg"
   xmlns="http://www.w3.org/2000/svg"
   xmlns:sodipodi="http://sodipodi.sourceforge.net/DTD/sodipodi-0.dtd"
   xmlns:inkscape="http://www.inkscape.org/namespaces/inkscape"
   width="1267.1581"
   height="963.00848"
   id="svg2"
   version="1.1"
   inkscape:version="0.48.4 r9939"
   sodipodi:docname="oop prototype diagram.svg">
  <defs
     id="defs4" />
  <sodipodi:namedview
     id="base"
     pagecolor="#ffffff"
     bordercolor="#666666"
     borderopacity="1.0"
     inkscape:pageopacity="0.0"
     inkscape:pageshadow="2"
     inkscape:zoom="0.31723122"
     inkscape:cx="1024.7182"
     inkscape:cy="668.51882"
     inkscape:document-units="px"
     inkscape:current-layer="layer1"
     showgrid="false"
     inkscape:snap-bbox="true"
     inkscape:object-paths="true"
     inkscape:snap-intersection-paths="true"
     inkscape:object-nodes="true"
     inkscape:snap-smooth-nodes="true"
     inkscape:snap-midpoints="true"
     inkscape:snap-object-midpoints="true"
     inkscape:snap-center="true"
     inkscape:snap-bbox-midpoints="true"
     inkscape:snap-bbox-edge-midpoints="true"
     inkscape:bbox-nodes="true"
     inkscape:bbox-paths="true"
     inkscape:window-width="1366"
     inkscape:window-height="706"
     inkscape:window-x="-8"
     inkscape:window-y="-8"
     inkscape:window-maximized="1"
     fit-margin-top="30"
     fit-margin-left="30"
     fit-margin-right="30"
     fit-margin-bottom="30" />
  <metadata
     id="metadata7">
    <rdf:RDF>
      <cc:Work
         rdf:about="">
        <dc:format>image/svg+xml</dc:format>
        <dc:type
           rdf:resource="http://purl.org/dc/dcmitype/StillImage" />
        <dc:title></dc:title>
      </cc:Work>
    </rdf:RDF>
  </metadata>
  <g
     inkscape:label="Layer 1"
     inkscape:groupmode="layer"
     id="layer1"
     transform="translate(224.79296,-46.923004)">
    <path
       sodipodi:type="arc"
       style="fill:none;stroke:#000000;stroke-width:1.44700003;stroke-miterlimit:4;stroke-opacity:1;stroke-dasharray:none;stroke-dashoffset:0"
       id="path2985"
       sodipodi:cx="420"
       sodipodi:cy="240.93361"
       sodipodi:rx="120"
       sodipodi:ry="120"
       d="m 540,240.93361 c 0,66.27417 -53.72583,120 -120,120 -66.27417,0 -120,-53.72583 -120,-120 0,-66.27417 53.72583,-120 120,-120 66.27417,0 120,53.72583 120,120 z"
       transform="translate(-51.428571,20)" />
    <path
       sodipodi:type="arc"
       style="fill:none;stroke:#000000;stroke-width:1.44700003;stroke-miterlimit:4;stroke-opacity:1;stroke-dasharray:none;stroke-dashoffset:0"
       id="path2987"
       sodipodi:cx="-250"
       sodipodi:cy="253.79076"
       sodipodi:rx="32.857143"
       sodipodi:ry="32.857143"
       d="m -217.14286,253.79076 c 0,18.1465 -14.71064,32.85714 -32.85714,32.85714 -18.1465,0 -32.85714,-14.71064 -32.85714,-32.85714 0,-18.1465 14.71064,-32.85715 32.85714,-32.85715 18.1465,0 32.85714,14.71065 32.85714,32.85715 z"
       transform="translate(578.26729,-14.857147)" />
    <path
       sodipodi:type="arc"
       style="fill:none;stroke:#000000;stroke-width:1.44700003;stroke-miterlimit:4;stroke-opacity:1;stroke-dasharray:none;stroke-dashoffset:0"
       id="path2987-1"
       sodipodi:cx="-250"
       sodipodi:cy="253.79076"
       sodipodi:rx="32.857143"
       sodipodi:ry="32.857143"
       d="m -217.14286,253.79076 c 0,18.1465 -14.71064,32.85714 -32.85714,32.85714 -18.1465,0 -32.85714,-14.71064 -32.85714,-32.85714 0,-18.1465 14.71064,-32.85715 32.85714,-32.85715 18.1465,0 32.85714,14.71065 32.85714,32.85715 z"
       transform="translate(657.42857,-14.857147)" />
    <path
       style="fill:none;stroke:#000000;stroke-width:1px;stroke-linecap:butt;stroke-linejoin:miter;stroke-opacity:1"
       d="m 314.28572,320.93361 c 100,0 100,0 100,0"
       id="path3009"
       inkscape:connector-curvature="0" />
    <text
       xml:space="preserve"
       style="font-size:11px;font-style:normal;font-weight:normal;line-height:125%;letter-spacing:0px;word-spacing:0px;fill:#000000;fill-opacity:1;stroke:none;font-family:Sans"
       x="221.85074"
       y="111.86832"
       id="text3011"
       sodipodi:linespacing="125%"><tspan
         sodipodi:role="line"
         id="tspan3013"
         x="221.85074"
         y="111.86832"
         style="font-size:48px;font-weight:bold;-inkscape-font-specification:Sans Bold">PROTOTYPE</tspan></text>
    <path
       style="fill:none;stroke:#000000;stroke-width:1.37238061;stroke-linecap:butt;stroke-linejoin:miter;stroke-miterlimit:4;stroke-opacity:1;stroke-dasharray:none"
       d="M 489.98112,382.3433 C 701.241,565.17355 697.9908,562.3607 697.9908,562.3607"
       id="path3834-0"
       inkscape:connector-curvature="0" />
    <path
       style="fill:#000000;fill-opacity:1;stroke:#000000;stroke-width:0.13213328px;stroke-linecap:butt;stroke-linejoin:miter;stroke-opacity:1"
       d="m 680.3288,567.11383 c 23.2144,3.83006 23.2144,3.83006 23.2144,3.83006 l -7.2242,-22.74326 z"
       id="path3838-9"
       inkscape:connector-curvature="0"
       inkscape:transform-center-x="23.112119"
       inkscape:transform-center-y="-12.275097" />
    <path
       style="fill:none;stroke:#000000;stroke-width:1;stroke-linecap:butt;stroke-linejoin:miter;stroke-miterlimit:4;stroke-opacity:1;stroke-dasharray:none"
       d="m 366.35355,429.64788 c -0.35108,205.65888 -0.34569,202.49476 -0.34569,202.49476"
       id="path3834-0-1"
       inkscape:connector-curvature="0" />
    <path
       style="fill:#000000;fill-opacity:1;stroke:#000000;stroke-width:0.13213328px;stroke-linecap:butt;stroke-linejoin:miter;stroke-opacity:1"
       d="m 353.89825,624.94221 c 12.06157,20.25139 12.06157,20.25139 12.06157,20.25139 l 12.66827,-20.20896 z"
       id="path3838-9-7"
       inkscape:connector-curvature="0"
       inkscape:transform-center-x="6.4322653"
       inkscape:transform-center-y="-19.520313" />
    <path
       style="fill:none;stroke:#000000;stroke-width:1;stroke-linecap:butt;stroke-linejoin:miter;stroke-miterlimit:4;stroke-opacity:1;stroke-dasharray:none"
       d="M 247.34793,382.15711 C 48.879303,553.91744 51.932763,551.27489 51.932763,551.27489"
       id="path3834-0-7"
       inkscape:connector-curvature="0" />
    <path
       style="fill:#000000;fill-opacity:1;stroke:#000000;stroke-width:0.12413292px;stroke-linecap:butt;stroke-linejoin:miter;stroke-opacity:1"
       d="m 68.525393,553.86132 c -21.80885,3.59816 -21.80885,3.59816 -21.80885,3.59816 l 6.78673,-21.36621 z"
       id="path3838-9-6"
       inkscape:connector-curvature="0"
       inkscape:transform-center-x="-21.712751"
       inkscape:transform-center-y="-11.531875" />
    <path
       sodipodi:type="arc"
       style="fill:none;stroke:#000000;stroke-width:1.44700003;stroke-miterlimit:4;stroke-opacity:1;stroke-dasharray:none;stroke-dashoffset:0"
       id="path2985-7"
       sodipodi:cx="420"
       sodipodi:cy="240.93361"
       sodipodi:rx="120"
       sodipodi:ry="120"
       d="m 540,240.93361 c 0,66.27417 -53.72583,120 -120,120 -66.27417,0 -120,-53.72583 -120,-120 0,-66.27417 53.72583,-120 120,-120 66.27417,0 120,53.72583 120,120 z"
       transform="translate(-494.06946,437.31187)" />
    <path
       sodipodi:type="arc"
       style="fill:none;stroke:#000000;stroke-width:1.44700003;stroke-miterlimit:4;stroke-opacity:1;stroke-dasharray:none;stroke-dashoffset:0"
       id="path2987-4"
       sodipodi:cx="-250"
       sodipodi:cy="253.79076"
       sodipodi:rx="32.857143"
       sodipodi:ry="32.857143"
       d="m -217.14286,253.79076 c 0,18.1465 -14.71064,32.85714 -32.85714,32.85714 -18.1465,0 -32.85714,-14.71064 -32.85714,-32.85714 0,-18.1465 14.71064,-32.85715 32.85714,-32.85715 18.1465,0 32.85714,14.71065 32.85714,32.85715 z"
       transform="translate(135.6264,402.45472)" />
    <path
       sodipodi:type="arc"
       style="fill:none;stroke:#000000;stroke-width:1.44700003;stroke-miterlimit:4;stroke-opacity:1;stroke-dasharray:none;stroke-dashoffset:0"
       id="path2987-1-0"
       sodipodi:cx="-250"
       sodipodi:cy="253.79076"
       sodipodi:rx="32.857143"
       sodipodi:ry="32.857143"
       d="m -217.14286,253.79076 c 0,18.1465 -14.71064,32.85714 -32.85714,32.85714 -18.1465,0 -32.85714,-14.71064 -32.85714,-32.85714 0,-18.1465 14.71064,-32.85715 32.85714,-32.85715 18.1465,0 32.85714,14.71065 32.85714,32.85715 z"
       transform="translate(214.78768,402.45472)" />
    <path
       style="fill:none;stroke:#000000;stroke-width:1px;stroke-linecap:butt;stroke-linejoin:miter;stroke-opacity:1"
       d="m -128.35517,738.24548 c 100,0 100,0 100,0"
       id="path3009-9"
       inkscape:connector-curvature="0" />
    <path
       style="fill:none;stroke:#000000;stroke-width:1.44700003;stroke-miterlimit:4;stroke-opacity:1;stroke-dasharray:none;stroke-dashoffset:0"
       d="m -131.95131,680.45151 c -14.87367,-12.04813 -16.74225,-31.11104 -4.27193,-43.58136 10.25409,-10.25409 20.82006,-13.0438 31.94697,-8.43488 31.190616,12.91957 23.341339,56.95271 -10.1523,56.95271 -6.5721,0 -14.01824,-2.09771 -17.52274,-4.93647 z"
       id="path4008"
       inkscape:connector-curvature="0" />
    <path
       style="fill:none;stroke:#000000;stroke-width:1.44700003;stroke-miterlimit:4;stroke-opacity:1;stroke-dasharray:none;stroke-dashoffset:0"
       d="m -55.637363,676.72383 c -11.485737,-11.48574 -12.09875,-26.83957 -1.571116,-39.35095 14.198626,-16.87411 40.371825,-13.16667 48.7590276,6.90673 5.6420885,13.50342 3.0212771,24.87874 -7.8369576,34.01534 -12.511382,10.52763 -27.865216,9.91462 -39.350954,-1.57112 z"
       id="path4010"
       inkscape:connector-curvature="0" />
    <path
       style="fill:none;stroke:#000000;stroke-width:1.44700003;stroke-miterlimit:4;stroke-opacity:1;stroke-dasharray:none;stroke-dashoffset:0"
       d="m -92.502023,794.04561 c -47.886957,-7.06463 -90.876227,-50.84998 -97.553207,-99.35971 -13.11479,-95.28172 89.54219,-165.2421 173.562496,-118.28225 17.22738257,9.62857 37.746657,31.3007 46.884743,49.51892 42.355205,84.4418 -28.9451861,181.98306 -122.894032,168.12304 z m 40.216309,-56.37362 c -14.535715,-0.51855 -38.321429,-0.51855 -52.857146,0 -14.53571,0.51854 -2.64285,0.94281 26.428574,0.94281 29.071429,0 40.964286,-0.42427 26.428572,-0.94281 z m -40.781283,-54.49811 c 8.857914,-6.56983 14.80378,-23.26064 12.460348,-34.9778 -0.96126,-4.8063 -5.527622,-12.51861 -10.147471,-17.13846 -7.154777,-7.15477 -10.61583,-8.39972 -23.35184,-8.39972 -12.75556,0 -16.23815,1.25734 -23.70627,8.55881 -4.81478,4.70734 -9.50305,12.30329 -10.41836,16.87988 -1.85853,9.29264 1.63526,24.22216 7.25231,30.9903 10.36848,12.49325 33.87395,14.49834 47.911283,4.08699 l 0,0 z m 72.431897,4.15954 c 12.6966914,-5.30502 19.0636714,-15.99373 19.0636714,-32.00357 0,-11.25158 -1.4610285,-14.70441 -9.7142854,-22.95767 -8.253257,-8.25325 -11.706092,-9.71428 -22.957666,-9.71428 -7.66598,0 -16.3734,2.05086 -20.67552,4.86972 -7.870546,5.15698 -15.223957,19.45749 -15.223957,29.60671 0,10.6819 8.6857,24.8626 18.059957,29.48558 11.256954,5.55145 19.425411,5.73678 31.4478,0.71351 l 0,0 z"
       id="path4012"
       inkscape:connector-curvature="0" />
    <path
       style="fill:none;stroke:#000000;stroke-width:1.44700003;stroke-miterlimit:4;stroke-opacity:1;stroke-dasharray:none;stroke-dashoffset:0"
       d="m -93.285026,791.24721 c -38.088214,-6.60352 -76.510644,-40.30253 -89.604784,-78.58931 -6.25088,-18.27734 -6.47415,-47.10303 -0.52338,-67.57295 8.51692,-29.29717 36.88574,-59.78376 68.03529,-73.1142 15.853994,-6.78471 41.861289,-9.69666 58.858574,-6.5902 71.479192,13.06372 114.480117,85.81143 89.53244,151.46837 -19.614277,51.62059 -73.748094,83.50913 -126.29814,74.39829 z m 40.999312,-53.57522 c -14.535715,-0.51855 -38.321429,-0.51855 -52.857146,0 -14.53571,0.51854 -2.64285,0.94281 26.428574,0.94281 29.071429,0 40.964286,-0.42427 26.428572,-0.94281 z m 37.857143,-51.87187 c 5.5092624,-3.12567 9.9089624,-8.89368 12.315371,-16.14546 10.3192943,-31.09747 -15.35484,-56.69111 -46.601086,-46.45499 -9.272011,3.03746 -12.688971,6.28439 -18.107985,17.20689 -7.567918,15.25381 -6.727906,25.72044 3.063205,38.16782 12.107449,15.39213 30.252037,18.04988 49.330495,7.22574 l 0,0 z m -81.061606,0.95373 c 15.287457,-7.90546 21.514331,-33.76418 12.006414,-49.85979 -6.56864,-11.11983 -16.429851,-15.70346 -33.232917,-15.44716 -12.72928,0.19417 -15.33019,1.38094 -24.17274,11.02984 -9.25256,10.09628 -9.82439,11.82901 -8.63539,26.16672 1.31496,15.85672 7.06516,25.42838 17.95338,29.88485 9.41385,3.85301 26.85789,2.99512 36.081253,-1.77446 l 0,0 z"
       id="path4014"
       inkscape:connector-curvature="0" />
    <path
       style="fill:none;stroke:#000000;stroke-width:1.44700003;stroke-miterlimit:4;stroke-opacity:1;stroke-dasharray:none;stroke-dashoffset:0"
       d="M -94.842711,788.25937 C -124.55499,782.37881 -157.63906,756.29581 -174.42857,725.51504 -182.48052,710.75313 -183,707.89599 -183,678.37218 c 0,-27.83221 0.81736,-33.05355 7.14286,-45.62922 9.28095,-18.45137 35.89118,-45.04956 54.50815,-54.4835 56.571956,-28.66718 126.0628614,-0.26507 151.631081,61.97419 4.5861,11.16369 6.32354,21.44045 6.447892,38.13853 0.148343,19.92035 -0.992577,25.32528 -8.879826,42.06666 -16.867431,35.8026 -48.501948,61.00887 -84.946326,67.68491 -18.887614,3.45991 -20.913342,3.46719 -37.746542,0.13562 l 0,0 z m 42.556997,-50.58738 c -14.535715,-0.51855 -38.321429,-0.51855 -52.857146,0 -14.53571,0.51854 -2.64285,0.94281 26.428574,0.94281 29.071429,0 40.964286,-0.42427 26.428572,-0.94281 z m -40.029572,-49.7163 c 13.667357,-7.17693 19.097017,-39.39899 8.94346,-53.07454 -8.068957,-10.86786 -17.177644,-14.98858 -33.241564,-15.03828 -11.55194,-0.0357 -15.22946,1.4404 -24.28571,9.7482 -10.05754,9.22634 -10.65036,10.72499 -10.29094,26.0156 0.45137,19.20254 6.84528,29.64537 21.31479,34.81227 9.86807,3.52377 28.48347,2.30294 37.559964,-2.46325 z m 76.489166,0.0558 c 12.5640829,-7.06143 17.1118343,-15.39165 17.1118343,-31.34417 0,-22.8225 -14.0440343,-36.86654 -36.8665343,-36.86654 -15.95252,0 -24.282746,4.54776 -31.344154,17.11184 -8.384555,14.9183 -7.895743,29.96171 1.368214,42.10738 12.3806,16.2318 30.892877,19.57889 49.73064,8.99147 l 0,2e-5 z"
       id="path4016"
       inkscape:connector-curvature="0" />
    <path
       style="fill:none;stroke:#000000;stroke-width:1.44700003;stroke-miterlimit:4;stroke-opacity:1;stroke-dasharray:none;stroke-dashoffset:0"
       d="m -99.057654,784.59888 c -26.914396,-7.59772 -60.393726,-35.67289 -74.231786,-62.24945 -5.6454,-10.84222 -6.53679,-16.82255 -6.55499,-43.97725 -0.0259,-38.58249 3.24893,-46.67461 29.55842,-73.0402 20.32812,-20.37148 36.47943,-29.61492 59.313527,-33.94532 44.465026,-8.43262 94.7804373,19.77742 115.94572,65.00659 7.35956,15.72702 8.598192,21.7381 8.598192,41.7271 0,20.28894 -1.178455,25.82241 -8.98122,42.17164 -22.7038061,47.57154 -79.075423,76.88934 -123.647863,64.30689 l 0,0 z m 46.77194,-46.92689 c -14.535715,-0.51855 -38.321429,-0.51855 -52.857146,0 -14.53571,0.51854 -2.64285,0.94281 26.428574,0.94281 29.071429,0 40.964286,-0.42427 26.428572,-0.94281 z m 28.097911,-43.99522 c 5.997057,-1.79676 14.4899459,-7.01003 18.8730916,-11.58505 6.9058857,-7.20819 7.9396514,-10.50429 7.74678,-24.70017 -0.36962,-27.20539 -12.2975457,-38.81528 -39.8785546,-38.81528 -13.077691,0 -16.686614,1.24097 -24.008263,8.25556 -4.759142,4.55954 -9.445348,12.67129 -10.467291,18.11872 l -1.85034,9.86316 -3.627866,-10.55275 c -4.955848,-14.41561 -11.64832,-21.08815 -24.667244,-24.59378 -15.08792,-4.06275 -29.75101,-0.72922 -41.26664,9.38164 -8.76096,7.69222 -9.66587,9.94348 -9.66587,24.04694 0,27.89374 12.55753,41.03025 39.14383,40.94859 21.155461,-0.065 28.091859,-4.78956 35.593281,-24.2436 2.845355,-7.37908 3.487698,-7.77652 4.617612,-2.85714 2.221534,9.67206 12.465094,21.86233 21.777443,25.91608 11.035831,4.804 14.073583,4.89367 27.680031,0.81708 l 0,0 z"
       id="path4018"
       inkscape:connector-curvature="0" />
    <path
       style="fill:none;stroke:#000000;stroke-width:1.44700003;stroke-miterlimit:4;stroke-opacity:1;stroke-dasharray:none;stroke-dashoffset:0"
       d="m -98.727311,781.65623 c -16.374089,-4.41871 -34.597849,-16.98397 -53.201369,-36.68228 -22.27396,-23.58476 -24.7215,-30.00547 -24.81438,-65.09664 -0.10019,-37.84976 4.47289,-49.08113 29.82718,-73.25494 20.94199,-19.96693 36.1975,-28.63383 57.518691,-32.67731 41.518092,-7.87375 91.387889,20.88273 112.08426,64.63126 11.813106,24.97086 10.031438,64.75185 -3.893714,86.93872 -17.1598456,27.34069 -40.139066,45.54341 -68.726374,54.44078 -20.273766,6.30991 -30.404892,6.66296 -48.794294,1.70041 z m 46.441597,-43.98424 c -14.535715,-0.51855 -38.321429,-0.51855 -52.857146,0 -14.53571,0.51854 -2.64285,0.94281 26.428574,0.94281 29.071429,0 40.964286,-0.42427 26.428572,-0.94281 z m 36.890583,-45.36506 c 13.0821024,-6.57226 19.5379881,-17.47083 19.5379881,-32.98325 0,-29.64431 -12.7357542,-42.38007 -42.3800661,-42.38007 -16.062362,0 -27.537682,7.17933 -33.2713,20.81559 l -3.550054,8.44309 -3.0864,-8.85364 c -9.580548,-27.48279 -61.079517,-27.0689 -74.383837,0.59781 -4.78721,9.95512 -2.15273,31.86315 5.30658,44.129 12.25339,20.14909 54.08402,19.39972 66.230174,-1.18648 l 5.874129,-9.95591 5.4037,8.88568 c 10.465317,17.20883 34.104666,22.64361 54.319086,12.48818 l 0,0 z"
       id="path4020"
       inkscape:connector-curvature="0" />
    <path
       style="fill:none;stroke:#000000;stroke-width:1.44700003;stroke-miterlimit:4;stroke-opacity:1;stroke-dasharray:none;stroke-dashoffset:0"
       d="m -95.857143,779.98611 c -24.553657,-7.49596 -62.053107,-39.24967 -72.600397,-61.47643 -5.25686,-11.07801 -6.99822,-47.14635 -3.32568,-68.88394 3.85897,-22.84104 43.94819,-62.5148 70.95388,-70.21855 18.25148,-5.20649 41.408494,-3.98456 60.163711,3.17466 23.299149,8.89373 50.0236176,34.3361 60.434918,57.53557 7.128228,15.88381 7.772274,19.9745 6.645171,42.20733 -1.38954,27.4096 -6.083791,39.2227 -23.7065314,59.65759 -25.6539226,29.74764 -69.8236746,46.77819 -98.5650716,38.00377 z m 43.571429,-42.31412 c -14.535715,-0.51855 -38.321429,-0.51855 -52.857146,0 -14.53571,0.51854 -2.64285,0.94281 26.428574,0.94281 29.071429,0 40.964286,-0.42427 26.428572,-0.94281 z m -40.13928,-43.99052 c 4.244823,-1.66651 9.762111,-6.14994 12.26064,-9.96318 l 4.54278,-6.93315 6.843954,8.13357 c 21.8549,25.97308 68.68513143,14.12077 74.2455171,-18.79087 C 7.7788229,652.44959 3.0338914,632.9775 -4.4285714,625.51504 -15.460663,614.48295 -43.719663,611.77587 -59.52886,620.2367 c -2.86302,1.53224 -7.501531,6.56144 -10.307809,11.17599 l -5.10232,8.39009 -3.192351,-7.00644 c -9.44516,-20.72987 -50.67473,-23.34337 -69.60585,-4.41224 -6.93706,6.93705 -8.11995,10.39036 -8.11995,23.70509 0,8.57183 1.92645,20.19579 4.281,25.83102 8.05365,19.27509 33.16072,25.96506 59.151146,15.76126 l 0,0 z"
       id="path4022"
       inkscape:connector-curvature="0" />
    <path
       style="fill:none;stroke:#000000;stroke-width:1.44700003;stroke-miterlimit:4;stroke-opacity:1;stroke-dasharray:none;stroke-dashoffset:0"
       d="m -106.46084,772.39009 c -19.65046,-9.80536 -51.77844,-39.51874 -58.334,-53.94986 -6.80396,-14.97794 -7.44207,-62.38267 -1.04579,-77.69113 5.65931,-13.54462 39.75122,-46.82291 56.05139,-54.71368 19.800789,-9.5854 50,-8.76621 72.69838,1.97204 21.1758,10.01794 44.1581,32.66424 54.406377,53.61097 6.753209,13.80306 7.410029,17.87615 6.298309,39.05718 -0.889803,16.95296 -3.116343,27.5207 -7.865286,37.33071 -15.26400286,31.53122 -55.034417,58.55803 -89.309409,60.69205 -15.077242,0.93873 -20.435545,-0.0887 -32.899971,-6.30828 z m 54.175126,-34.7181 c -14.442347,1.72468 -38.425582,1.81271 -52.857146,0 -37.59504,-4.72222 -5.35876,13.18946 27.438727,13.31718 31.837359,0.12398 61.305935,-17.6028 25.418419,-13.31718 z m -42.442952,-40.61428 c 3.968117,-1.50868 9.953089,-5.48138 13.299935,-8.82822 6.056522,-6.05653 6.11424,-6.05875 12.256954,-0.47114 9.995797,9.09249 17.829808,12.0424 31.980717,12.0424 C -9.34958,699.80075 7,683.97967 7,657.03817 c 0,-31.41997 -14.7732286,-44.496 -47.889017,-42.38734 -16.472334,1.04888 -19.482369,2.19422 -26.547549,10.10153 -5.905848,6.60979 -8.372157,7.8671 -9.52726,4.85695 -0.857211,-2.23386 -5.780314,-6.63555 -10.940228,-9.78152 -21.225016,-12.9408 -60.119786,-3.02905 -67.164306,17.11582 -3.98108,11.38451 -2.11651,34.66864 3.68361,45.99988 7.26445,14.19196 36.9805,21.59486 56.656084,14.11422 z"
       id="path4024"
       inkscape:connector-curvature="0"
       sodipodi:nodetypes="cssssssssccssssssssssssssss" />
    <path
       style="fill:none;stroke:#000000;stroke-width:1.44700003;stroke-miterlimit:4;stroke-opacity:1;stroke-dasharray:none;stroke-dashoffset:0"
       d="m -79.904006,622.92183 c -7.568805,-8.36344 -28.461664,-13.09518 -42.597984,-9.64746 -6.55962,1.59984 -14.49801,3.91224 -17.64087,5.13867 -11.31859,4.41683 16.97756,-21.58781 31.20434,-28.67732 16.900963,-8.4221 42.091594,-9.50205 62.157931,-2.66476 13.661595,4.65497 45.2737661,28.31059 47.55659186,35.58694 1.01737424,3.24281 -0.0967143,3.00724 -4.57825426,-0.96806 -13.7045686,-12.1565 -48.9795456,-12.22632 -63.3606626,-0.1254 -7.706009,6.48417 -8.06664,6.52259 -12.741092,1.35739 l 0,0 z"
       id="path4026"
       inkscape:connector-curvature="0" />
    <path
       style="fill:none;stroke:#000000;stroke-width:1.44700003;stroke-miterlimit:4;stroke-opacity:1;stroke-dasharray:none;stroke-dashoffset:0"
       d="m -87.285714,616.41399 c -7.984469,-4.4263 -13.920036,-5.29407 -29.449116,-4.30538 l -19.44912,1.23827 9.44912,-8.07812 c 14.96797,-12.79622 28.01327,-17.96207 48.515181,-19.21166 15.816515,-0.96402 21.660043,0.0372 34.285715,5.87452 8.370805,3.87013 18.433934,9.75257 22.362505,13.07209 l 7.142858,6.03551 -18.681595,0.0951 c -12.889108,0.0656 -22.156863,1.86685 -29.889834,5.80934 -12.94082,6.59761 -11.367257,6.63192 -24.285714,-0.52962 z"
       id="path4028"
       inkscape:connector-curvature="0" />
    <path
       style="fill:none;stroke:#000000;stroke-width:1.44700003;stroke-miterlimit:4;stroke-opacity:1;stroke-dasharray:none;stroke-dashoffset:0"
       d="m -84.428571,615.51504 c -4.0441,-2.31182 -14.962903,-4.12715 -25.168619,-4.18447 -20.39883,-0.11457 -20.68034,-2.14693 -1.82769,-13.19532 23.058306,-13.51307 52.349294,-12.49801 78.120194,2.70719 l 10.160606,5.9949 -18.499389,3.08204 c -10.174662,1.69512 -21.30772,4.61189 -24.740128,6.48171 -7.777617,4.23688 -9.206029,4.16675 -18.044974,-0.88605 z"
       id="path4030"
       inkscape:connector-curvature="0" />
    <path
       sodipodi:type="arc"
       style="fill:none;stroke:#000000;stroke-width:1.44700003;stroke-miterlimit:4;stroke-opacity:1;stroke-dasharray:none;stroke-dashoffset:0"
       id="path2985-4"
       sodipodi:cx="420"
       sodipodi:cy="240.93361"
       sodipodi:rx="120"
       sodipodi:ry="120"
       d="m 540,240.93361 c 0,66.27417 -53.72583,120 -120,120 -66.27417,0 -120,-53.72583 -120,-120 0,-66.27417 53.72583,-120 120,-120 66.27417,0 120,53.72583 120,120 z"
       transform="translate(-55.911544,618.2744)" />
    <path
       sodipodi:type="arc"
       style="fill:none;stroke:#000000;stroke-width:1.60964453;stroke-miterlimit:4;stroke-opacity:1;stroke-dasharray:none;stroke-dashoffset:0"
       id="path2987-8"
       sodipodi:cx="-250"
       sodipodi:cy="253.79076"
       sodipodi:rx="32.857143"
       sodipodi:ry="32.857143"
       d="m -217.14286,253.79076 c 0,18.1465 -14.71064,32.85714 -32.85714,32.85714 -18.1465,0 -32.85714,-14.71064 -32.85714,-32.85714 0,-18.1465 14.71064,-32.85715 32.85714,-32.85715 18.1465,0 32.85714,14.71065 32.85714,32.85715 z"
       transform="matrix(1,0,0,0.8081224,573.78431,638.41856)" />
    <path
       sodipodi:type="arc"
       style="fill:none;stroke:#000000;stroke-width:1.37634265;stroke-miterlimit:4;stroke-opacity:1;stroke-dasharray:none;stroke-dashoffset:0"
       id="path2987-1-8"
       sodipodi:cx="-250"
       sodipodi:cy="253.79076"
       sodipodi:rx="32.857143"
       sodipodi:ry="32.857143"
       d="m -217.14286,253.79076 c 0,18.1465 -14.71064,32.85714 -32.85714,32.85714 -18.1465,0 -32.85714,-14.71064 -32.85714,-32.85714 0,-18.1465 14.71064,-32.85715 32.85714,-32.85715 18.1465,0 32.85714,14.71065 32.85714,32.85715 z"
       transform="matrix(1,0,0,1.1053098,652.94559,553.23042)" />
    <path
       style="fill:none;stroke:#000000;stroke-width:1px;stroke-linecap:butt;stroke-linejoin:miter;stroke-opacity:1"
       d="m 309.80274,913.20797 c 71.48901,49.89423 98.63387,2.39073 100,0"
       id="path3009-2"
       inkscape:connector-curvature="0"
       sodipodi:nodetypes="cc" />
    <text
       xml:space="preserve"
       style="font-size:11px;font-style:normal;font-weight:normal;text-align:center;line-height:125%;letter-spacing:0px;word-spacing:0px;text-anchor:middle;fill:#000000;fill-opacity:1;stroke:none;font-family:Sans"
       x="365.0592"
       y="710.1427"
       id="text3011-4"
       sodipodi:linespacing="125%"><tspan
         sodipodi:role="line"
         id="tspan3013-5"
         x="365.0592"
         y="710.1427"
         style="font-size:48px;font-weight:bold;text-align:center;text-anchor:middle;-inkscape-font-specification:Sans Bold">CLONE</tspan></text>
    <text
       xml:space="preserve"
       style="font-size:11px;font-style:normal;font-weight:normal;text-align:center;line-height:125%;letter-spacing:0px;word-spacing:0px;text-anchor:middle;fill:#000000;fill-opacity:1;stroke:none;font-family:Sans"
       x="-76.955338"
       y="521.21045"
       id="text3011-4-5"
       sodipodi:linespacing="125%"><tspan
         sodipodi:role="line"
         id="tspan3013-5-1"
         x="-76.955338"
         y="521.21045"
         style="font-size:48px;font-weight:bold;text-align:center;text-anchor:middle;-inkscape-font-specification:Sans Bold">CLONE</tspan></text>
    <path
       style="fill:#ffff00;fill-opacity:1;stroke:#000000;stroke-width:1.44700003;stroke-miterlimit:4;stroke-opacity:1;stroke-dasharray:none;stroke-dashoffset:0"
       d="m 303.03234,858.85588 c -11.00363,-8.04605 -7.54016,-25.83043 6.56722,-33.72165 15.12627,-8.46114 34.23937,-3.44609 40.67193,10.67185 4.12174,9.04624 3.5753,12.59329 -3.07154,19.93797 -9.31201,10.28965 -32.15076,11.89876 -44.16761,3.11183 z"
       id="path4158"
       inkscape:connector-curvature="0" />
    <path
       style="fill:#ffff00;fill-opacity:1;stroke:#000000;stroke-width:1.44700003;stroke-miterlimit:4;stroke-opacity:1;stroke-dasharray:none;stroke-dashoffset:0"
       d="m 382.79542,855.70463 c -10.4119,-11.50502 -10.4119,-32.95982 0,-44.46484 17.42083,-19.2498 48.34695,-5.02837 48.34695,22.23242 0,27.2608 -30.92612,41.48222 -48.34695,22.23242 z"
       id="path4160"
       inkscape:connector-curvature="0" />
    <path
       style="fill:#ff0000;fill-opacity:1;stroke:#000000;stroke-width:1.44700003;stroke-miterlimit:4;stroke-opacity:1;stroke-dasharray:none;stroke-dashoffset:0"
       d="m 345.72553,976.56343 c -38.26134,-6.08909 -70.67377,-30.17577 -88.72439,-65.93385 -3.3894,-6.71437 -8.24245,-21.7818 -9.75349,-30.28203 -5.9814,-33.64779 2.97144,-68.808 24.26725,-95.30407 35.40338,-44.04857 96.16228,-57.12228 146.29494,-31.4788 27.84764,14.24443 48.75702,38.28029 58.59558,67.35711 13.6342,40.2945 4.99879,84.07839 -22.92582,116.24014 -18.65249,21.48271 -44.1188,35.27285 -73.47308,39.78606 -6.94141,1.06724 -26.53998,0.84738 -34.28099,-0.38456 l 0,0 z m 38.23338,-42.08342 c 9.33147,-2.91063 21.2622,-11.76721 25.41569,-18.86692 2.57637,-4.4039 0.0638,-3.2635 -4.00984,1.81999 -7.57778,9.45626 -18.80875,15.56365 -31.56445,17.16472 -7.94196,0.99686 -18.11353,-0.3676 -28.34912,-3.80286 -6.43487,-2.15966 -21.30969,-9.39421 -26.52,-12.89833 -6.44464,-4.33425 -8.9383,-5.60976 -9.42562,-4.82126 -0.99996,1.61797 19.71438,13.61316 31.09751,18.00786 5.61012,2.1659 12.72995,4.15964 17.71307,4.96014 6.50531,1.04502 19.89807,0.22851 25.64276,-1.56334 l 0,0 z M 329.96416,870.5329 c 10.93257,-1.57368 21.10751,-8.43376 25.33995,-17.08456 4.55078,-9.30145 2.05562,-20.7708 -6.11728,-28.11894 -7.06092,-6.34837 -14.74672,-9.09045 -25.52722,-9.1074 -14.28494,-0.0225 -25.83262,6.17135 -31.07866,16.6696 -2.02093,4.04425 -2.41426,5.75331 -2.41426,10.49015 0,15.25048 13.31016,26.58187 32.70485,27.84275 0.86687,0.0563 4.05855,-0.25486 7.09262,-0.6916 z m 83.31297,-1.20547 c 11.00672,-3.8834 19.42197,-13.60211 22.28221,-25.73356 2.37298,-10.06481 1.09286,-20.16466 -3.69416,-29.14604 -8.95672,-16.80452 -29.30214,-22.85164 -45.33418,-13.47434 -4.02911,2.35666 -10.73339,9.53596 -12.93499,13.85145 -11.48246,22.50748 0.84524,51.77838 23.47258,55.73332 4.55098,0.79545 12.08753,0.22315 16.20854,-1.23083 l 0,0 z"
       id="path4162"
       inkscape:connector-curvature="0" />
    <path
       sodipodi:type="arc"
       style="fill:none;stroke:#000000;stroke-width:1.44700003;stroke-miterlimit:4;stroke-opacity:1;stroke-dasharray:none;stroke-dashoffset:0"
       id="path2985-1"
       sodipodi:cx="420"
       sodipodi:cy="240.93361"
       sodipodi:rx="120"
       sodipodi:ry="120"
       d="m 540,240.93361 c 0,66.27417 -53.72583,120 -120,120 -66.27417,0 -120,-53.72583 -120,-120 0,-66.27417 53.72583,-120 120,-120 66.27417,0 120,53.72583 120,120 z"
       transform="translate(415.85627,540.82887)" />
    <path
       sodipodi:type="arc"
       style="fill:none;stroke:#000000;stroke-width:1.44700003;stroke-miterlimit:4;stroke-opacity:1;stroke-dasharray:none;stroke-dashoffset:0"
       id="path2987-89"
       sodipodi:cx="-250"
       sodipodi:cy="253.79076"
       sodipodi:rx="32.857143"
       sodipodi:ry="32.857143"
       d="m -217.14286,253.79076 c 0,18.1465 -14.71064,32.85714 -32.85714,32.85714 -18.1465,0 -32.85714,-14.71064 -32.85714,-32.85714 0,-18.1465 14.71064,-32.85715 32.85714,-32.85715 18.1465,0 32.85714,14.71065 32.85714,32.85715 z"
       transform="translate(1045.5521,505.97173)" />
    <path
       sodipodi:type="arc"
       style="fill:none;stroke:#000000;stroke-width:1.44700003;stroke-miterlimit:4;stroke-opacity:1;stroke-dasharray:none;stroke-dashoffset:0"
       id="path2987-1-2"
       sodipodi:cx="-250"
       sodipodi:cy="253.79076"
       sodipodi:rx="32.857143"
       sodipodi:ry="32.857143"
       d="m -217.14286,253.79076 c 0,18.1465 -14.71064,32.85714 -32.85714,32.85714 -18.1465,0 -32.85714,-14.71064 -32.85714,-32.85714 0,-18.1465 14.71064,-32.85715 32.85714,-32.85715 18.1465,0 32.85714,14.71065 32.85714,32.85715 z"
       transform="translate(1124.7134,505.97173)" />
    <path
       style="fill:none;stroke:#000000;stroke-width:1px;stroke-linecap:butt;stroke-linejoin:miter;stroke-opacity:1"
       d="m 781.57057,841.76249 c 99.99999,0 99.99999,0 99.99999,0"
       id="path3009-7"
       inkscape:connector-curvature="0" />
    <text
       xml:space="preserve"
       style="font-size:11px;font-style:normal;font-weight:normal;line-height:125%;letter-spacing:0px;word-spacing:0px;fill:#000000;fill-opacity:1;stroke:none;font-family:Sans"
       x="834.29578"
       y="554.69714"
       id="text3011-9"
       sodipodi:linespacing="125%"><tspan
         sodipodi:role="line"
         id="tspan3013-54"
         x="834.29578"
         y="554.69714"
         style="font-size:48px;font-weight:bold;text-align:center;text-anchor:middle;-inkscape-font-specification:Sans Bold">CLONE</tspan></text>
    <rect
       style="fill:#000000;fill-opacity:1;stroke:#000000;stroke-width:1.44700003;stroke-miterlimit:4;stroke-opacity:1;stroke-dasharray:none;stroke-dashoffset:0"
       id="rect4197"
       width="189.11874"
       height="111.24265"
       x="741.0481"
       y="571.84735" />
    <path
       sodipodi:type="arc"
       style="fill:#000000;fill-opacity:1;stroke:#000000;stroke-width:1.44700003;stroke-miterlimit:4;stroke-opacity:1;stroke-dasharray:none;stroke-dashoffset:0"
       id="path4199"
       sodipodi:cx="849.53809"
       sodipodi:cy="674.08917"
       sodipodi:rx="178.10353"
       sodipodi:ry="18.913649"
       d="m 1027.6416,674.08917 c 0,10.44572 -79.73965,18.91365 -178.10351,18.91365 -98.36387,0 -178.10353,-8.46793 -178.10353,-18.91365 0,-10.44572 79.73966,-18.91365 178.10353,-18.91365 98.36386,0 178.10351,8.46793 178.10351,18.91365 z"
       transform="translate(-16,2)" />
    <path
       style="fill:#e9afaf;fill-opacity:1;stroke:#000000;stroke-width:1.44700003;stroke-miterlimit:4;stroke-opacity:1;stroke-dasharray:none;stroke-dashoffset:0"
       d="m 809.21163,895.94301 c -60.24707,-14.19916 -101.39978,-79.54591 -87.43878,-138.8448 4.77197,-20.26879 12.11066,-35.26794 24.27871,-49.62194 l 9.01395,-10.63327 80.82171,-0.067 80.82171,-0.067 7.93895,9.12412 c 4.36643,5.01826 11.85043,16.79676 16.63112,26.17444 12.20665,23.94425 14.18249,63.2787 4.47222,89.03173 -20.89821,55.42504 -80.48659,88.11438 -136.53959,74.90369 l 0,0 z m 47.1422,-55.66795 c -15.25545,-0.5791 -39.37035,-0.57614 -53.58867,0.007 -14.21832,0.58272 -1.73659,1.05652 27.73718,1.0529 29.47377,-0.003 41.10694,-0.4804 25.85149,-1.05949 l 0,-3e-5 z m -44.90981,-49.80583 c 20.67279,-9.80988 24.97375,-38.55875 8.26784,-55.26466 -7.36282,-7.36282 -11.9725,-9.21434 -22.94066,-9.21434 -16.44441,0 -26.85892,6.58241 -32.76002,20.70573 -7.37235,17.64453 -0.97395,34.79333 16.35324,43.82942 11.60124,6.05002 18.23707,6.03803 31.0796,-0.0561 l 0,-10e-6 z m 75.29135,1.91188 c 18.57128,-7.06079 27.35177,-27.40768 19.71495,-45.68515 -5.8307,-13.95481 -16.29414,-20.70573 -32.09242,-20.70573 -36.08523,0 -47.5479,47.66232 -15.48351,64.38111 10.92705,5.69751 17.00779,6.13614 27.86098,2.00977 l 0,0 z"
       id="path4201"
       inkscape:connector-curvature="0" />
  </g>
</svg>
